<?xml version="1.0" encoding="UTF-8"?>
<!DOCTYPE svg PUBLIC "-//W3C//DTD SVG 1.1//EN" "http://www.w3.org/Graphics/SVG/1.1/DTD/svg11.dtd">
<svg xmlns="http://www.w3.org/2000/svg" version="1.1" width="260px" height="353px" style="shape-rendering:geometricPrecision; text-rendering:geometricPrecision; image-rendering:optimizeQuality; fill-rule:evenodd; clip-rule:evenodd" xmlns:xlink="http://www.w3.org/1999/xlink">
<g><path style="opacity:0.137" fill="#dde1c5" d="M 129.5,14.5 C 131.455,13.0698 133.121,13.4031 134.5,15.5C 132.883,14.962 131.216,14.6287 129.5,14.5 Z"/></g>
<g><path style="opacity:0.765" fill="#99a864" d="M 129.5,14.5 C 131.216,14.6287 132.883,14.962 134.5,15.5C 134.5,15.8333 134.5,16.1667 134.5,16.5C 131.369,15.9078 129.036,16.9078 127.5,19.5C 126.833,19.5 126.167,19.5 125.5,19.5C 126.833,17.8333 128.167,16.1667 129.5,14.5 Z"/></g>
<g><path style="opacity:0.012" fill="#fafee0" d="M 134.5,16.5 C 134.5,16.1667 134.5,15.8333 134.5,15.5C 136.5,15.5 137.5,16.5 137.5,18.5C 136.5,17.8333 135.5,17.1667 134.5,16.5 Z"/></g>
<g><path style="opacity:0.271" fill="#e6f0b7" d="M 137.5,18.5 C 139.914,19.9108 141.581,21.9108 142.5,24.5C 140.833,23.1667 139.167,21.8333 137.5,20.5C 137.5,19.8333 137.5,19.1667 137.5,18.5 Z"/></g>
<g><path style="opacity:0.165" fill="#e4eec6" d="M 129.5,14.5 C 128.167,16.1667 126.833,17.8333 125.5,19.5C 124.167,21.5 122.5,23.1667 120.5,24.5C 121.75,22.0676 123.25,19.7343 125,17.5C 126.129,15.8588 127.629,14.8588 129.5,14.5 Z"/></g>
<g><path style="opacity:0.149" fill="#d8e9b8" d="M 120.5,24.5 C 120.262,26.4044 119.262,27.7377 117.5,28.5C 117.738,26.5956 118.738,25.2623 120.5,24.5 Z"/></g>
<g><path style="opacity:0.145" fill="#eef5c1" d="M 142.5,24.5 C 144.262,25.2623 145.262,26.5956 145.5,28.5C 143.738,27.7377 142.738,26.4044 142.5,24.5 Z"/></g>
<g><path style="opacity:1" fill="#9ebc2e" d="M 137.5,22.5 C 141.124,26.342 144.29,30.6753 147,35.5C 149.709,42.6727 150.209,50.0061 148.5,57.5C 147.883,57.6107 147.383,57.944 147,58.5C 146.333,63.8333 146.333,69.1667 147,74.5C 147.383,75.056 147.883,75.3893 148.5,75.5C 148.5,76.1667 148.5,76.8333 148.5,77.5C 148.5,78.5 148.5,79.5 148.5,80.5C 147.839,79.2825 147.172,77.9492 146.5,76.5C 145.833,78.5 145.167,80.5 144.5,82.5C 143.833,82.8333 143.167,83.1667 142.5,83.5C 141.543,80.7199 140.376,78.0533 139,75.5C 138,77.1667 137,78.8333 136,80.5C 135.643,88.1949 134.976,95.8616 134,103.5C 133.614,80.8523 133.447,58.1857 133.5,35.5C 133.529,32.7305 134.195,30.3972 135.5,28.5C 136.465,31.0848 137.799,31.5848 139.5,30C 137.896,27.0809 135.896,24.5809 133.5,22.5C 133.833,21.8333 134.167,21.1667 134.5,20.5C 135.518,21.1925 136.518,21.8592 137.5,22.5 Z"/></g>
<g><path style="opacity:0.059" fill="#f8fdcf" d="M 145.5,28.5 C 146.906,28.9731 147.573,29.9731 147.5,31.5C 146.094,31.0269 145.427,30.0269 145.5,28.5 Z"/></g>
<g><path style="opacity:1" fill="#88a453" d="M 125.5,19.5 C 126.167,19.5 126.833,19.5 127.5,19.5C 125.873,21.6298 124.04,23.6298 122,25.5C 121.589,30.6029 119.422,34.6029 115.5,37.5C 115.227,35.549 115.893,34.049 117.5,33C 116.748,32.3292 116.414,31.4959 116.5,30.5C 116.328,29.5084 116.662,28.8417 117.5,28.5C 119.262,27.7377 120.262,26.4044 120.5,24.5C 122.5,23.1667 124.167,21.5 125.5,19.5 Z"/></g>
<g><path style="opacity:0.063" fill="#f4facf" d="M 147.5,31.5 C 148.674,32.5137 149.34,33.847 149.5,35.5C 147.896,34.713 147.229,33.3797 147.5,31.5 Z"/></g>
<g><path style="opacity:1" fill="#81a63c" d="M 134.5,16.5 C 135.5,17.1667 136.5,17.8333 137.5,18.5C 137.5,19.1667 137.5,19.8333 137.5,20.5C 135.648,19.9111 133.815,19.2444 132,18.5C 131.51,19.7932 131.343,21.1266 131.5,22.5C 130.502,49.3282 130.169,76.3282 130.5,103.5C 129.434,98.6813 128.6,93.6813 128,88.5C 127.581,89.6721 126.915,90.6721 126,91.5C 125.504,104.226 126.004,116.893 127.5,129.5C 124.884,133.651 124.884,137.818 127.5,142C 127.37,143.059 126.87,143.892 126,144.5C 125.304,153.349 125.47,162.182 126.5,171C 125.604,183.296 124.604,195.463 123.5,207.5C 124.5,207.5 125.5,207.5 126.5,207.5C 125.806,212.805 125.472,218.138 125.5,223.5C 124.167,223.5 122.833,223.5 121.5,223.5C 122.01,226.388 121.344,228.721 119.5,230.5C 118.651,228.112 117.651,225.779 116.5,223.5C 116.5,218.5 116.5,213.5 116.5,208.5C 116.275,203.952 116.941,199.618 118.5,195.5C 118.448,179.817 118.281,163.817 118,147.5C 117.79,145.942 117.29,144.609 116.5,143.5C 115.833,139.833 115.167,136.167 114.5,132.5C 112.613,125.248 110.613,118.082 108.5,111C 108.594,108.046 109.094,107.879 110,110.5C 111.375,108.063 111.875,105.397 111.5,102.5C 110.5,102.5 109.5,102.5 108.5,102.5C 108.457,99.0901 108.957,95.7568 110,92.5C 113.812,88.5479 115.979,83.8812 116.5,78.5C 119.547,69.2851 119.047,60.2851 115,51.5C 114.501,47.1794 114.334,42.8461 114.5,38.5C 115.167,38.5 115.5,38.1667 115.5,37.5C 119.422,34.6029 121.589,30.6029 122,25.5C 124.04,23.6298 125.873,21.6298 127.5,19.5C 129.036,16.9078 131.369,15.9078 134.5,16.5 Z"/></g>
<g><path style="opacity:0.812" fill="#9eb576" d="M 116.5,30.5 C 116.414,31.4959 116.748,32.3292 117.5,33C 115.893,34.049 115.227,35.549 115.5,37.5C 115.5,38.1667 115.167,38.5 114.5,38.5C 113.833,38.8333 113.167,39.1667 112.5,39.5C 113.042,36.0878 114.375,33.0878 116.5,30.5 Z"/></g>
<g><path style="opacity:0.125" fill="#e3edbc" d="M 149.5,36.5 C 151.074,38.1016 151.741,40.1016 151.5,42.5C 151.167,42.5 150.833,42.5 150.5,42.5C 149.85,40.5648 149.517,38.5648 149.5,36.5 Z"/></g>
<g><path style="opacity:0.854" fill="#a1b54f" d="M 137.5,20.5 C 139.167,21.8333 140.833,23.1667 142.5,24.5C 142.738,26.4044 143.738,27.7377 145.5,28.5C 145.427,30.0269 146.094,31.0269 147.5,31.5C 147.229,33.3797 147.896,34.713 149.5,35.5C 149.5,35.8333 149.5,36.1667 149.5,36.5C 149.517,38.5648 149.85,40.5648 150.5,42.5C 150.5,46.8333 150.5,51.1667 150.5,55.5C 149.833,56.1667 149.167,56.8333 148.5,57.5C 150.209,50.0061 149.709,42.6727 147,35.5C 144.29,30.6753 141.124,26.342 137.5,22.5C 137.5,21.8333 137.5,21.1667 137.5,20.5 Z"/></g>
<g><path style="opacity:0.271" fill="#b3c290" d="M 112.5,40.5 C 111.829,46.6803 112.829,52.5136 115.5,58C 114.748,58.6708 114.414,59.5041 114.5,60.5C 110.545,54.0888 109.878,47.4221 112.5,40.5 Z"/></g>
<g><path style="opacity:0.367" fill="#cfdc9d" d="M 150.5,42.5 C 150.833,42.5 151.167,42.5 151.5,42.5C 152.889,47.0321 152.556,51.3654 150.5,55.5C 150.5,51.1667 150.5,46.8333 150.5,42.5 Z"/></g>
<g><path style="opacity:0.847" fill="#a1b752" d="M 148.5,57.5 C 147.322,62.3121 147.322,66.9787 148.5,71.5C 148.5,72.1667 148.5,72.8333 148.5,73.5C 148.5,74.1667 148.5,74.8333 148.5,75.5C 147.883,75.3893 147.383,75.056 147,74.5C 146.333,69.1667 146.333,63.8333 147,58.5C 147.383,57.944 147.883,57.6107 148.5,57.5 Z"/></g>
<g><path style="opacity:0.094" fill="#e1efb2" d="M 150.5,55.5 C 148.913,60.6964 148.246,66.0297 148.5,71.5C 147.322,66.9787 147.322,62.3121 148.5,57.5C 149.167,56.8333 149.833,56.1667 150.5,55.5 Z"/></g>
<g><path style="opacity:0.376" fill="#b8c992" d="M 114.5,60.5 C 115.836,66.7227 115.669,73.056 114,79.5C 113.292,80.3805 112.458,81.0472 111.5,81.5C 114.072,74.7587 115.072,67.7587 114.5,60.5 Z"/></g>
<g><path style="opacity:0.955" fill="#84a14b" d="M 114.5,38.5 C 114.334,42.8461 114.501,47.1794 115,51.5C 119.047,60.2851 119.547,69.2851 116.5,78.5C 115.201,81.3953 113.535,84.062 111.5,86.5C 111.5,84.8333 111.5,83.1667 111.5,81.5C 112.458,81.0472 113.292,80.3805 114,79.5C 115.669,73.056 115.836,66.7227 114.5,60.5C 114.414,59.5041 114.748,58.6708 115.5,58C 112.829,52.5136 111.829,46.6803 112.5,40.5C 112.5,40.1667 112.5,39.8333 112.5,39.5C 113.167,39.1667 113.833,38.8333 114.5,38.5 Z"/></g>
<g><path style="opacity:0.294" fill="#d0df98" d="M 148.5,73.5 C 150.346,76.54 151.679,79.8733 152.5,83.5C 150.658,81.8102 149.325,79.8102 148.5,77.5C 148.5,76.8333 148.5,76.1667 148.5,75.5C 148.5,74.8333 148.5,74.1667 148.5,73.5 Z"/></g>
<g><path style="opacity:0.933" fill="#9eb446" d="M 148.5,77.5 C 149.325,79.8102 150.658,81.8102 152.5,83.5C 152.166,86.491 153.166,88.8243 155.5,90.5C 155.5,91.8333 155.5,93.1667 155.5,94.5C 154.115,93.4264 152.949,92.0931 152,90.5C 151.102,87.0447 149.935,83.7113 148.5,80.5C 148.5,79.5 148.5,78.5 148.5,77.5 Z"/></g>
<g><path style="opacity:1" fill="#9dbd2f" d="M 135.5,28.5 C 134.195,30.3972 133.529,32.7305 133.5,35.5C 133.447,58.1857 133.614,80.8523 134,103.5C 134.976,95.8616 135.643,88.1949 136,80.5C 137,78.8333 138,77.1667 139,75.5C 140.376,78.0533 141.543,80.7199 142.5,83.5C 143.167,83.1667 143.833,82.8333 144.5,82.5C 145.167,80.5 145.833,78.5 146.5,76.5C 147.172,77.9492 147.839,79.2825 148.5,80.5C 149.935,83.7113 151.102,87.0447 152,90.5C 152.949,92.0931 154.115,93.4264 155.5,94.5C 156.292,100.13 156.625,105.797 156.5,111.5C 156.483,113.565 156.15,115.565 155.5,117.5C 153.72,118.99 153.054,120.99 153.5,123.5C 152.542,123.953 151.708,124.619 151,125.5C 150.342,130.096 149.176,134.429 147.5,138.5C 145.787,139.635 145.12,141.302 145.5,143.5C 144.178,143.33 143.011,143.663 142,144.5C 141.833,146.167 141.667,147.833 141.5,149.5C 141.477,163.082 141.643,176.749 142,190.5C 143.317,191.68 143.484,193.18 142.5,195C 142.917,201.62 143.917,208.12 145.5,214.5C 144.996,219.296 144.162,223.962 143,228.5C 142.501,234.157 142.334,239.824 142.5,245.5C 141.008,254.106 140.008,262.773 139.5,271.5C 137.702,274.031 136.535,277.031 136,280.5C 135.693,285.357 135.193,290.19 134.5,295C 134.041,296.942 133.041,298.442 131.5,299.5C 131.5,295.5 131.5,291.5 131.5,287.5C 132.499,201.002 132.833,114.335 132.5,27.5C 133.791,27.2627 134.791,27.596 135.5,28.5 Z"/></g>
<g><path style="opacity:0.831" fill="#a1b279" d="M 111.5,81.5 C 111.5,83.1667 111.5,84.8333 111.5,86.5C 111.5,86.8333 111.5,87.1667 111.5,87.5C 109.97,88.2112 108.637,89.2112 107.5,90.5C 108.075,87.0884 109.408,84.0884 111.5,81.5 Z"/></g>
<g><path style="opacity:0.537" fill="#cbd795" d="M 152.5,83.5 C 154.293,85.4261 155.293,87.7594 155.5,90.5C 153.166,88.8243 152.166,86.491 152.5,83.5 Z"/></g>
<g><path style="opacity:1" fill="#80a63f" d="M 130.5,103.5 C 130.5,111.5 130.5,119.5 130.5,127.5C 129.667,167.336 128.834,207.336 128,247.5C 127.208,242.42 126.875,237.42 127,232.5C 126.667,233.167 126.333,233.833 126,234.5C 125.667,231.5 125.333,228.5 125,225.5C 124.025,230.876 122.858,236.209 121.5,241.5C 121.719,243.915 123.052,244.915 125.5,244.5C 125.716,246.681 124.883,248.347 123,249.5C 122.505,251.473 122.338,253.473 122.5,255.5C 121.833,255.5 121.167,255.5 120.5,255.5C 120.621,247.142 120.288,238.809 119.5,230.5C 121.344,228.721 122.01,226.388 121.5,223.5C 122.833,223.5 124.167,223.5 125.5,223.5C 125.472,218.138 125.806,212.805 126.5,207.5C 125.5,207.5 124.5,207.5 123.5,207.5C 124.604,195.463 125.604,183.296 126.5,171C 125.47,162.182 125.304,153.349 126,144.5C 126.87,143.892 127.37,143.059 127.5,142C 124.884,137.818 124.884,133.651 127.5,129.5C 126.004,116.893 125.504,104.226 126,91.5C 126.915,90.6721 127.581,89.6721 128,88.5C 128.6,93.6813 129.434,98.6813 130.5,103.5 Z"/></g>
<g><path style="opacity:1" fill="#85a342" d="M 116.5,78.5 C 115.979,83.8812 113.812,88.5479 110,92.5C 108.957,95.7568 108.457,99.0901 108.5,102.5C 109.5,102.5 110.5,102.5 111.5,102.5C 111.875,105.397 111.375,108.063 110,110.5C 109.094,107.879 108.594,108.046 108.5,111C 110.613,118.082 112.613,125.248 114.5,132.5C 113.143,131.41 112.143,130.076 111.5,128.5C 110.386,124.236 109.219,119.903 108,115.5C 107.333,108.833 107.333,102.167 108,95.5C 108.533,92.495 109.7,89.8283 111.5,87.5C 111.5,87.1667 111.5,86.8333 111.5,86.5C 113.535,84.062 115.201,81.3953 116.5,78.5 Z"/></g>
<g><path style="opacity:0.255" fill="#cbd3a2" d="M 91.5,103.5 C 90.8333,103.5 90.1667,103.5 89.5,103.5C 89.44,102.957 89.1067,102.624 88.5,102.5C 87.3777,103.63 86.0443,104.297 84.5,104.5C 86.5185,101.071 88.8518,100.738 91.5,103.5 Z"/></g>
<g><path style="opacity:0.255" fill="#c7d4a5" d="M 107.5,90.5 C 105.935,96.3776 105.268,102.378 105.5,108.5C 105.167,108.5 104.833,108.5 104.5,108.5C 103.559,102.145 104.559,96.1452 107.5,90.5 Z"/></g>
<g><path style="opacity:0.31" fill="#deeaac" d="M 91.5,103.5 C 93.914,104.911 95.5806,106.911 96.5,109.5C 94.086,108.089 92.4194,106.089 91.5,103.5 Z"/></g>
<g><path style="opacity:0.957" fill="#9eb352" d="M 89.5,103.5 C 90.1667,103.5 90.8333,103.5 91.5,103.5C 92.4194,106.089 94.086,108.089 96.5,109.5C 96.5,110.167 96.5,110.833 96.5,111.5C 96.1667,111.5 95.8333,111.5 95.5,111.5C 93.7607,108.757 91.4274,106.757 88.5,105.5C 88.5,105.167 88.5,104.833 88.5,104.5C 88.5,103.833 88.8333,103.5 89.5,103.5 Z"/></g>
<g><path style="opacity:0.743" fill="#a3b552" d="M 155.5,94.5 C 157.019,97.5256 157.685,100.859 157.5,104.5C 157.497,107.025 157.163,109.359 156.5,111.5C 156.625,105.797 156.292,100.13 155.5,94.5 Z"/></g>
<g><path style="opacity:0.227" fill="#dce6c0" d="M 180.5,108.5 C 178.833,107.167 177.167,105.833 175.5,104.5C 174.686,102.727 173.352,102.227 171.5,103C 169.297,105.372 166.963,107.539 164.5,109.5C 166.489,104.317 170.156,101.817 175.5,102C 177.79,103.777 179.457,105.944 180.5,108.5 Z"/></g>
<g><path style="opacity:1" fill="#889f51" d="M 111.5,87.5 C 109.7,89.8283 108.533,92.495 108,95.5C 107.333,102.167 107.333,108.833 108,115.5C 109.219,119.903 110.386,124.236 111.5,128.5C 110.833,128.167 110.167,127.833 109.5,127.5C 107.698,121.29 106.365,114.956 105.5,108.5C 105.268,102.378 105.935,96.3776 107.5,90.5C 108.637,89.2112 109.97,88.2112 111.5,87.5 Z"/></g>
<g><path style="opacity:0.816" fill="#a7b85d" d="M 171.5,105.5 C 172.568,104.566 173.901,104.232 175.5,104.5C 177.167,105.833 178.833,107.167 180.5,108.5C 180.5,109.167 180.5,109.833 180.5,110.5C 177.991,109.079 175.657,107.412 173.5,105.5C 173.167,105.5 172.833,105.5 172.5,105.5C 172.167,105.5 171.833,105.5 171.5,105.5 Z"/></g>
<g><path style="opacity:0.184" fill="#d6e4b5" d="M 84.5,104.5 C 83.5806,107.089 81.914,109.089 79.5,110.5C 80.4194,107.911 82.086,105.911 84.5,104.5 Z"/></g>
<g><path style="opacity:0.804" fill="#8a9f59" d="M 175.5,104.5 C 173.901,104.232 172.568,104.566 171.5,105.5C 169.5,106.833 167.833,108.5 166.5,110.5C 165.833,110.833 165.167,111.167 164.5,111.5C 164.5,110.833 164.5,110.167 164.5,109.5C 166.963,107.539 169.297,105.372 171.5,103C 173.352,102.227 174.686,102.727 175.5,104.5 Z"/></g>
<g><path style="opacity:0.2" fill="#d8e3ac" d="M 96.5,109.5 C 97.9063,109.973 98.573,110.973 98.5,112.5C 97.8333,112.167 97.1667,111.833 96.5,111.5C 96.5,110.833 96.5,110.167 96.5,109.5 Z"/></g>
<g><path style="opacity:0.122" fill="#f0f6cd" d="M 180.5,108.5 C 182.262,109.262 183.262,110.596 183.5,112.5C 182.833,112.167 182.167,111.833 181.5,111.5C 180.833,111.5 180.5,111.167 180.5,110.5C 180.5,109.833 180.5,109.167 180.5,108.5 Z"/></g>
<g><path style="opacity:0.098" fill="#dee9ba" d="M 79.5,110.5 C 79.573,112.027 78.9063,113.027 77.5,113.5C 77.427,111.973 78.0937,110.973 79.5,110.5 Z"/></g>
<g><path style="opacity:0.078" fill="#f2f9c9" d="M 183.5,112.5 C 184.674,113.514 185.34,114.847 185.5,116.5C 183.896,115.713 183.229,114.38 183.5,112.5 Z"/></g>
<g><path style="opacity:0.106" fill="#e1f1c0" d="M 98.5,112.5 C 99.9063,112.973 100.573,113.973 100.5,115.5C 99.0937,115.027 98.427,114.027 98.5,112.5 Z"/></g>
<g><path style="opacity:0.125" fill="#d8e7be" d="M 164.5,109.5 C 164.5,110.167 164.5,110.833 164.5,111.5C 163.167,112.833 161.833,114.167 160.5,115.5C 160.845,112.802 162.178,110.802 164.5,109.5 Z"/></g>
<g><path style="opacity:0.973" fill="#9db64f" d="M 96.5,111.5 C 97.1667,111.833 97.8333,112.167 98.5,112.5C 98.427,114.027 99.0937,115.027 100.5,115.5C 100.5,116.833 100.5,118.167 100.5,119.5C 97.8633,117.518 96.53,114.852 96.5,111.5 Z"/></g>
<g><path style="opacity:0.1" fill="#e9f3cc" d="M 104.5,108.5 C 104.833,108.5 105.167,108.5 105.5,108.5C 106.365,114.956 107.698,121.29 109.5,127.5C 106.45,121.641 104.784,115.307 104.5,108.5 Z"/></g>
<g><path style="opacity:0.733" fill="#abbd67" d="M 155.5,117.5 C 155.405,119.786 154.738,121.786 153.5,123.5C 153.054,120.99 153.72,118.99 155.5,117.5 Z"/></g>
<g><path style="opacity:0.016" fill="#e9f1be" d="M 155.5,90.5 C 157.747,95.1347 159.081,100.135 159.5,105.5C 158.563,112.931 156.563,119.931 153.5,126.5C 153.5,125.5 153.5,124.5 153.5,123.5C 154.738,121.786 155.405,119.786 155.5,117.5C 156.15,115.565 156.483,113.565 156.5,111.5C 157.163,109.359 157.497,107.025 157.5,104.5C 157.685,100.859 157.019,97.5256 155.5,94.5C 155.5,93.1667 155.5,91.8333 155.5,90.5 Z"/></g>
<g><path style="opacity:0.471" fill="#afbe86" d="M 164.5,111.5 C 163.657,114.516 162.157,117.183 160,119.5C 159.064,123.114 158.564,126.78 158.5,130.5C 157.362,127.696 157.195,124.696 158,121.5C 158.24,119.148 159.073,117.148 160.5,115.5C 161.833,114.167 163.167,112.833 164.5,111.5 Z"/></g>
<g><path style="opacity:0.959" fill="#88a14c" d="M 89.5,103.5 C 88.8333,103.5 88.5,103.833 88.5,104.5C 87.8333,104.833 87.1667,105.167 86.5,105.5C 84.9013,107.604 83.068,109.604 81,111.5C 80.6667,113.5 80.3333,115.5 80,117.5C 78.6152,118.551 77.6152,119.884 77,121.5C 77.402,127.301 77.902,133.134 78.5,139C 78.4971,141.69 78.1638,144.19 77.5,146.5C 77.3556,138.116 76.689,129.783 75.5,121.5C 75.5106,119.983 76.1772,118.816 77.5,118C 76.7476,117.329 76.4142,116.496 76.5,115.5C 76.3284,114.508 76.6618,113.842 77.5,113.5C 78.9063,113.027 79.573,112.027 79.5,110.5C 81.914,109.089 83.5806,107.089 84.5,104.5C 86.0443,104.297 87.3777,103.63 88.5,102.5C 89.1067,102.624 89.44,102.957 89.5,103.5 Z"/></g>
<g><path style="opacity:0.184" fill="#e0ebb4" d="M 100.5,115.5 C 101.793,116.842 102.626,118.509 103,120.5C 103.81,124.358 103.643,128.024 102.5,131.5C 102.813,127.958 102.479,124.625 101.5,121.5C 101.672,120.508 101.338,119.842 100.5,119.5C 100.5,118.167 100.5,116.833 100.5,115.5 Z"/></g>
<g><path style="opacity:1" fill="#9dbd2e" d="M 95.5,111.5 C 95.8333,111.5 96.1667,111.5 96.5,111.5C 96.53,114.852 97.8633,117.518 100.5,119.5C 101.338,119.842 101.672,120.508 101.5,121.5C 100.613,128.113 99.613,134.779 98.5,141.5C 97.8217,147.141 99.4884,151.807 103.5,155.5C 104.338,155.842 104.672,156.508 104.5,157.5C 105.331,161.476 105.497,165.476 105,169.5C 104.097,170.701 102.931,171.535 101.5,172C 102.108,173.231 102.441,174.564 102.5,176C 101.306,179.076 100.639,182.243 100.5,185.5C 100.5,186.167 100.5,186.833 100.5,187.5C 98.8392,191.443 97.1725,195.443 95.5,199.5C 95.5613,216.989 95.8946,234.323 96.5,251.5C 94.6734,259.636 94.0067,267.969 94.5,276.5C 94.0074,278.806 93.6741,281.139 93.5,283.5C 92.1983,287.691 91.0317,292.024 90,296.5C 89.5498,261.828 89.8831,227.162 91,192.5C 91.117,187.201 91.9503,182.034 93.5,177C 92.9915,175.831 92.1581,174.998 91,174.5C 90.5935,160.852 90.4268,147.352 90.5,134C 90.6667,132.833 90.8333,131.667 91,130.5C 91.763,133.063 92.263,133.063 92.5,130.5C 90.3395,124.289 90.0062,117.956 91.5,111.5C 92.7264,110.637 94.0597,110.637 95.5,111.5 Z"/></g>
<g><path style="opacity:1" fill="#97b837" d="M 137.5,20.5 C 137.5,21.1667 137.5,21.8333 137.5,22.5C 136.518,21.8592 135.518,21.1925 134.5,20.5C 134.167,21.1667 133.833,21.8333 133.5,22.5C 135.896,24.5809 137.896,27.0809 139.5,30C 137.799,31.5848 136.465,31.0848 135.5,28.5C 134.791,27.596 133.791,27.2627 132.5,27.5C 132.833,114.335 132.499,201.002 131.5,287.5C 131.5,199.167 131.5,110.833 131.5,22.5C 131.343,21.1266 131.51,19.7932 132,18.5C 133.815,19.2444 135.648,19.9111 137.5,20.5 Z"/></g>
<g><path style="opacity:0.086" fill="#c6d4a5" d="M 76.5,115.5 C 76.4142,116.496 76.7476,117.329 77.5,118C 76.1772,118.816 75.5106,119.983 75.5,121.5C 74.5206,124.625 74.1872,127.958 74.5,131.5C 73.3567,128.024 73.1901,124.358 74,120.5C 74.3736,118.509 75.207,116.842 76.5,115.5 Z"/></g>
<g><path style="opacity:1" fill="#9ebc2e" d="M 173.5,105.5 C 175.657,107.412 177.991,109.079 180.5,110.5C 180.5,111.167 180.833,111.5 181.5,111.5C 181.128,114.022 181.961,116.022 184,117.5C 184.167,120 184.333,122.5 184.5,125C 183.053,132.119 182.553,139.286 183,146.5C 186.191,151.415 188.525,156.748 190,162.5C 190.497,165.146 190.664,167.813 190.5,170.5C 189.065,171.79 188.065,173.456 187.5,175.5C 186.342,180.099 185.675,184.766 185.5,189.5C 185.5,189.833 185.5,190.167 185.5,190.5C 184.094,190.973 183.427,191.973 183.5,193.5C 182.542,193.953 181.708,194.619 181,195.5C 180.167,194.5 179.333,193.5 178.5,192.5C 177.526,194.743 177.192,197.076 177.5,199.5C 178.5,199.5 179.5,199.5 180.5,199.5C 180.09,206.952 180.757,214.285 182.5,221.5C 182.167,222.5 181.833,223.5 181.5,224.5C 180.264,223.754 178.93,223.421 177.5,223.5C 177.173,228.544 177.506,233.544 178.5,238.5C 179.842,237.098 180.676,237.431 181,239.5C 181.897,235.586 182.397,235.752 182.5,240C 182.397,244.248 181.897,244.414 181,240.5C 180.667,240.833 180.333,241.167 180,241.5C 178.528,247.379 178.695,253.046 180.5,258.5C 180.541,262.669 179.208,266.336 176.5,269.5C 176.167,268.333 175.833,267.167 175.5,266C 176.965,262.719 177.632,259.219 177.5,255.5C 176.5,255.5 175.5,255.5 174.5,255.5C 174.333,239.83 174.5,224.163 175,208.5C 177,207.5 177,206.5 175,205.5C 174.333,179.833 174.333,154.167 175,128.5C 175.434,132.223 176.268,132.39 177.5,129C 176.724,125.778 175.391,122.944 173.5,120.5C 173.966,115.404 173.966,110.404 173.5,105.5 Z"/></g>
<g><path style="opacity:0.839" fill="#a0b578" d="M 75.5,121.5 C 76.689,129.783 77.3556,138.116 77.5,146.5C 77.1667,147.5 76.5,148.167 75.5,148.5C 75.5,147.833 75.5,147.167 75.5,146.5C 75.4332,144.599 75.7665,142.766 76.5,141C 75.4345,137.906 74.7678,134.74 74.5,131.5C 74.1872,127.958 74.5206,124.625 75.5,121.5 Z"/></g>
<g><path style="opacity:0.008" fill="#eaf3bc" d="M 152.5,129.5 C 151.924,134.809 150.591,139.809 148.5,144.5C 148.762,139.112 150.095,134.112 152.5,129.5 Z"/></g>
<g><path style="opacity:0.008" fill="#ebf3bf" d="M 185.5,116.5 C 187.329,119.287 188.329,122.454 188.5,126C 187.495,131.01 186.495,136.01 185.5,141C 186.058,144.949 187.058,148.782 188.5,152.5C 185.667,149.305 184.333,145.471 184.5,141C 186.496,132.888 186.829,124.721 185.5,116.5 Z"/></g>
<g><path style="opacity:0.165" fill="#d5e2b6" d="M 109.5,127.5 C 110.167,127.833 110.833,128.167 111.5,128.5C 112.657,134.13 113.657,139.797 114.5,145.5C 112.464,139.709 110.798,133.709 109.5,127.5 Z"/></g>
<g><path style="opacity:0.775" fill="#a8bb5a" d="M 153.5,123.5 C 153.5,124.5 153.5,125.5 153.5,126.5C 153.737,127.791 153.404,128.791 152.5,129.5C 150.095,134.112 148.762,139.112 148.5,144.5C 147.833,145.5 147.167,146.5 146.5,147.5C 146.368,144.43 146.701,141.43 147.5,138.5C 149.176,134.429 150.342,130.096 151,125.5C 151.708,124.619 152.542,123.953 153.5,123.5 Z"/></g>
<g><path style="opacity:1" fill="#81a53b" d="M 171.5,105.5 C 171.141,107.371 170.141,108.871 168.5,110C 170.004,111.491 170.837,113.324 171,115.5C 171.667,147.833 171.667,180.167 171,212.5C 170.797,216.421 170.297,220.255 169.5,224C 170.81,229.757 171.476,235.757 171.5,242C 170.863,253.146 170.863,264.146 171.5,275C 171.386,277.76 170.386,280.093 168.5,282C 169.683,287.779 170.35,293.613 170.5,299.5C 169.569,292.66 167.903,285.993 165.5,279.5C 165.5,276.833 165.5,274.167 165.5,271.5C 165.059,259.095 164.059,246.762 162.5,234.5C 163.208,225.003 163.875,215.503 164.5,206C 164.499,202.317 164.165,198.817 163.5,195.5C 161.223,190.767 159.389,185.767 158,180.5C 155.505,173.227 155.171,165.894 157,158.5C 159.243,154.777 160.91,150.777 162,146.5C 162.47,137.758 161.97,129.092 160.5,120.5C 161.675,120.719 162.675,120.386 163.5,119.5C 164.705,116.55 165.705,113.55 166.5,110.5C 167.833,108.5 169.5,106.833 171.5,105.5 Z"/></g>
<g><path style="opacity:0.024" fill="#e5f0b9" d="M 102.5,131.5 C 101.686,136.119 101.353,140.786 101.5,145.5C 98.6874,140.652 99.0207,135.985 102.5,131.5 Z"/></g>
<g><path style="opacity:0.216" fill="#d0e0b0" d="M 158.5,130.5 C 162.618,137.686 162.285,144.686 157.5,151.5C 158.649,147.908 159.649,144.241 160.5,140.5C 159.512,137.218 158.846,133.885 158.5,130.5 Z"/></g>
<g><path style="opacity:0.824" fill="#899f57" d="M 111.5,128.5 C 112.143,130.076 113.143,131.41 114.5,132.5C 115.167,136.167 115.833,139.833 116.5,143.5C 116.964,165.34 116.964,187.006 116.5,208.5C 116.5,213.5 116.5,218.5 116.5,223.5C 115.246,216.531 114.246,209.531 113.5,202.5C 113.56,193.487 113.893,184.487 114.5,175.5C 115.117,175.389 115.617,175.056 116,174.5C 116.167,170.5 116.333,166.5 116.5,162.5C 116.695,156.583 116.029,150.916 114.5,145.5C 113.657,139.797 112.657,134.13 111.5,128.5 Z"/></g>
<g><path style="opacity:0.994" fill="#9db64a" d="M 101.5,121.5 C 102.479,124.625 102.813,127.958 102.5,131.5C 99.0207,135.985 98.6874,140.652 101.5,145.5C 101.5,145.833 101.5,146.167 101.5,146.5C 101.12,148.698 101.787,150.365 103.5,151.5C 103.5,152.833 103.5,154.167 103.5,155.5C 99.4884,151.807 97.8217,147.141 98.5,141.5C 99.613,134.779 100.613,128.113 101.5,121.5 Z"/></g>
<g><path style="opacity:0.463" fill="#d5e4a0" d="M 101.5,146.5 C 102.931,147.78 103.598,149.447 103.5,151.5C 101.787,150.365 101.12,148.698 101.5,146.5 Z"/></g>
<g><path style="opacity:0.925" fill="#a4b853" d="M 181.5,111.5 C 182.167,111.833 182.833,112.167 183.5,112.5C 183.229,114.38 183.896,115.713 185.5,116.5C 186.829,124.721 186.496,132.888 184.5,141C 184.333,145.471 185.667,149.305 188.5,152.5C 188.182,155.481 189.182,157.815 191.5,159.5C 191.5,159.833 191.5,160.167 191.5,160.5C 191.818,165.032 191.485,169.366 190.5,173.5C 190.5,172.5 190.5,171.5 190.5,170.5C 190.664,167.813 190.497,165.146 190,162.5C 188.525,156.748 186.191,151.415 183,146.5C 182.553,139.286 183.053,132.119 184.5,125C 184.333,122.5 184.167,120 184,117.5C 181.961,116.022 181.128,114.022 181.5,111.5 Z"/></g>
<g><path style="opacity:0.78" fill="#b0c489" d="M 75.5,146.5 C 75.5,147.167 75.5,147.833 75.5,148.5C 75.7678,150.099 75.4345,151.432 74.5,152.5C 73.8333,152.833 73.1667,153.167 72.5,153.5C 73.2638,150.982 74.2638,148.649 75.5,146.5 Z"/></g>
<g><path style="opacity:0.026" fill="#f1f9ca" d="M 148.5,144.5 C 148.102,150.339 147.435,156.006 146.5,161.5C 146.5,158.167 146.5,154.833 146.5,151.5C 146.5,150.167 146.5,148.833 146.5,147.5C 147.167,146.5 147.833,145.5 148.5,144.5 Z"/></g>
<g><path style="opacity:0.494" fill="#bccc97" d="M 72.5,153.5 C 72.5848,156.649 71.5848,159.316 69.5,161.5C 69.4152,158.351 70.4152,155.684 72.5,153.5 Z"/></g>
<g><path style="opacity:0.759" fill="#9bb046" d="M 146.5,147.5 C 146.5,148.833 146.5,150.167 146.5,151.5C 145.51,157.31 145.177,163.31 145.5,169.5C 144.346,163.013 144.179,156.346 145,149.5C 145.278,148.584 145.778,147.918 146.5,147.5 Z"/></g>
<g><path style="opacity:0.475" fill="#c4d6a4" d="M 156.5,153.5 C 156.88,155.698 156.213,157.365 154.5,158.5C 154.402,156.447 155.069,154.78 156.5,153.5 Z"/></g>
<g><path style="opacity:0.043" fill="#eaf4bc" d="M 188.5,152.5 C 190.293,154.426 191.293,156.759 191.5,159.5C 189.182,157.815 188.182,155.481 188.5,152.5 Z"/></g>
<g><path style="opacity:0.302" fill="#d4e19c" d="M 103.5,151.5 C 105.794,154.37 107.128,157.703 107.5,161.5C 107.5,161.833 107.5,162.167 107.5,162.5C 107.167,162.5 106.833,162.5 106.5,162.5C 106.598,160.447 105.931,158.78 104.5,157.5C 104.672,156.508 104.338,155.842 103.5,155.5C 103.5,154.167 103.5,152.833 103.5,151.5 Z"/></g>
<g><path style="opacity:0.208" fill="#d3df9d" d="M 146.5,151.5 C 146.5,154.833 146.5,158.167 146.5,161.5C 147.363,167.127 148.03,172.794 148.5,178.5C 147.833,177.5 147.167,176.5 146.5,175.5C 145.659,173.621 145.325,171.621 145.5,169.5C 145.177,163.31 145.51,157.31 146.5,151.5 Z"/></g>
<g><path style="opacity:0.083" fill="#e5f2ca" d="M 114.5,145.5 C 116.029,150.916 116.695,156.583 116.5,162.5C 116.333,166.5 116.167,170.5 116,174.5C 115.617,175.056 115.117,175.389 114.5,175.5C 115.789,165.502 115.789,155.502 114.5,145.5 Z"/></g>
<g><path style="opacity:0.596" fill="#aabb60" d="M 106.5,162.5 C 106.833,162.5 107.167,162.5 107.5,162.5C 107.877,167.453 107.211,172.119 105.5,176.5C 106.127,171.859 106.46,167.193 106.5,162.5 Z"/></g>
<g><path style="opacity:0.122" fill="#ebf5be" d="M 107.5,161.5 C 108.645,165.311 108.812,169.311 108,173.5C 105.464,182.11 103.13,190.776 101,199.5C 100.501,205.491 100.334,211.491 100.5,217.5C 99.1529,214.26 98.4863,210.76 98.5,207C 99.641,199.462 100.974,191.962 102.5,184.5C 103.167,184.5 103.5,184.167 103.5,183.5C 104.612,181.401 105.279,179.067 105.5,176.5C 107.211,172.119 107.877,167.453 107.5,162.5C 107.5,162.167 107.5,161.833 107.5,161.5 Z"/></g>
<g><path style="opacity:1" fill="#82a53d" d="M 86.5,105.5 C 86.2454,155.368 86.2454,205.368 86.5,255.5C 83.4096,254.83 81.743,255.997 81.5,259C 83.0209,265.751 83.6875,272.584 83.5,279.5C 82.8333,279.5 82.1667,279.5 81.5,279.5C 79.0628,260.919 77.7294,242.252 77.5,223.5C 78.6585,213.342 78.8252,203.008 78,192.5C 77.6174,191.944 77.1174,191.611 76.5,191.5C 77.1876,186.623 76.0209,182.29 73,178.5C 70.853,169.677 71.353,161.011 74.5,152.5C 75.4345,151.432 75.7678,150.099 75.5,148.5C 76.5,148.167 77.1667,147.5 77.5,146.5C 78.1638,144.19 78.4971,141.69 78.5,139C 77.902,133.134 77.402,127.301 77,121.5C 77.6152,119.884 78.6152,118.551 80,117.5C 80.3333,115.5 80.6667,113.5 81,111.5C 83.068,109.604 84.9013,107.604 86.5,105.5 Z"/></g>
<g><path style="opacity:1" fill="#9fb939" d="M 104.5,157.5 C 105.931,158.78 106.598,160.447 106.5,162.5C 106.46,167.193 106.127,171.859 105.5,176.5C 103.837,178.438 103.171,180.772 103.5,183.5C 103.5,184.167 103.167,184.5 102.5,184.5C 101.833,184.833 101.167,185.167 100.5,185.5C 100.639,182.243 101.306,179.076 102.5,176C 102.441,174.564 102.108,173.231 101.5,172C 102.931,171.535 104.097,170.701 105,169.5C 105.497,165.476 105.331,161.476 104.5,157.5 Z"/></g>
<g><path style="opacity:0.016" fill="#e9f4be" d="M 191.5,160.5 C 193.744,167.667 193.077,174.667 189.5,181.5C 189.401,178.763 189.735,176.096 190.5,173.5C 191.485,169.366 191.818,165.032 191.5,160.5 Z"/></g>
<g><path style="opacity:1" fill="#9fba31" d="M 147.5,138.5 C 146.701,141.43 146.368,144.43 146.5,147.5C 145.778,147.918 145.278,148.584 145,149.5C 144.179,156.346 144.346,163.013 145.5,169.5C 145.325,171.621 145.659,173.621 146.5,175.5C 146.938,187.163 147.272,198.83 147.5,210.5C 146.173,220.128 145.173,229.795 144.5,239.5C 143.833,241.5 143.167,243.5 142.5,245.5C 142.334,239.824 142.501,234.157 143,228.5C 144.162,223.962 144.996,219.296 145.5,214.5C 143.917,208.12 142.917,201.62 142.5,195C 143.484,193.18 143.317,191.68 142,190.5C 141.643,176.749 141.477,163.082 141.5,149.5C 141.667,147.833 141.833,146.167 142,144.5C 143.011,143.663 144.178,143.33 145.5,143.5C 145.12,141.302 145.787,139.635 147.5,138.5 Z"/></g>
<g><path style="opacity:1" fill="#9fb743" d="M 190.5,170.5 C 190.5,171.5 190.5,172.5 190.5,173.5C 189.735,176.096 189.401,178.763 189.5,181.5C 187.975,184.079 186.641,186.746 185.5,189.5C 185.675,184.766 186.342,180.099 187.5,175.5C 188.065,173.456 189.065,171.79 190.5,170.5 Z"/></g>
<g><path style="opacity:0.788" fill="#99af68" d="M 74.5,152.5 C 71.353,161.011 70.853,169.677 73,178.5C 76.0209,182.29 77.1876,186.623 76.5,191.5C 75.596,192.209 75.2627,193.209 75.5,194.5C 74.5489,193.081 74.2155,191.415 74.5,189.5C 74.9465,186.99 74.2798,184.99 72.5,183.5C 68.7516,176.489 67.7516,169.156 69.5,161.5C 71.5848,159.316 72.5848,156.649 72.5,153.5C 73.1667,153.167 73.8333,152.833 74.5,152.5 Z"/></g>
<g><path style="opacity:0.812" fill="#a2b656" d="M 105.5,176.5 C 105.279,179.067 104.612,181.401 103.5,183.5C 103.171,180.772 103.837,178.438 105.5,176.5 Z"/></g>
<g><path style="opacity:1" fill="#99bb38" d="M 88.5,105.5 C 91.4274,106.757 93.7607,108.757 95.5,111.5C 94.0597,110.637 92.7264,110.637 91.5,111.5C 90.0062,117.956 90.3395,124.289 92.5,130.5C 92.263,133.063 91.763,133.063 91,130.5C 90.8333,131.667 90.6667,132.833 90.5,134C 90.4268,147.352 90.5935,160.852 91,174.5C 92.1581,174.998 92.9915,175.831 93.5,177C 91.9503,182.034 91.117,187.201 91,192.5C 89.8831,227.162 89.5498,261.828 90,296.5C 91.0317,292.024 92.1983,287.691 93.5,283.5C 92.552,290.136 91.8854,296.803 91.5,303.5C 90.9779,305.219 89.9779,306.552 88.5,307.5C 88.5,299.833 88.5,292.167 88.5,284.5C 88.169,226.595 88.5023,168.762 89.5,111C 88.9341,110.005 88.2674,109.172 87.5,108.5C 87.5569,107.391 87.8902,106.391 88.5,105.5 Z"/></g>
<g><path style="opacity:1" fill="#87aa31" d="M 87.5,108.5 C 88.2674,109.172 88.9341,110.005 89.5,111C 88.5023,168.762 88.169,226.595 88.5,284.5C 87.501,226.002 87.1676,167.336 87.5,108.5 Z"/></g>
<g><path style="opacity:0.149" fill="#deeac3" d="M 153.5,173.5 C 157.02,181.744 159.353,190.411 160.5,199.5C 157.8,191.046 155.466,182.379 153.5,173.5 Z"/></g>
<g><path style="opacity:0.129" fill="#e9f2bb" d="M 189.5,181.5 C 188.16,187.191 186.66,192.858 185,198.5C 184.5,204.825 184.334,211.158 184.5,217.5C 183.662,217.158 183.328,216.492 183.5,215.5C 183.098,207.055 183.765,198.721 185.5,190.5C 185.5,190.167 185.5,189.833 185.5,189.5C 186.641,186.746 187.975,184.079 189.5,181.5 Z"/></g>
<g><path style="opacity:0.271" fill="#b1c28f" d="M 72.5,183.5 C 74.2798,184.99 74.9465,186.99 74.5,189.5C 73.2616,187.786 72.595,185.786 72.5,183.5 Z"/></g>
<g><path style="opacity:0.091" fill="#ecf6d3" d="M 114.5,175.5 C 113.893,184.487 113.56,193.487 113.5,202.5C 113.5,204.167 113.5,205.833 113.5,207.5C 112.834,203.514 112.501,199.347 112.5,195C 112.353,188.269 113.02,181.769 114.5,175.5 Z"/></g>
<g><path style="opacity:1" fill="#84a342" d="M 116.5,143.5 C 117.29,144.609 117.79,145.942 118,147.5C 118.281,163.817 118.448,179.817 118.5,195.5C 116.941,199.618 116.275,203.952 116.5,208.5C 116.964,187.006 116.964,165.34 116.5,143.5 Z"/></g>
<g><path style="opacity:0.845" fill="#a5b854" d="M 146.5,175.5 C 147.167,176.5 147.833,177.5 148.5,178.5C 149.461,180.265 149.795,182.265 149.5,184.5C 149.536,193.185 149.203,201.851 148.5,210.5C 148.167,210.5 147.833,210.5 147.5,210.5C 147.272,198.83 146.938,187.163 146.5,175.5 Z"/></g>
<g><path style="opacity:0.875" fill="#a5b857" d="M 102.5,184.5 C 100.974,191.962 99.641,199.462 98.5,207C 98.4863,210.76 99.1529,214.26 100.5,217.5C 101.468,219.607 101.802,221.941 101.5,224.5C 101.443,240.48 99.7767,256.147 96.5,271.5C 97.8271,259.706 98.8271,247.872 99.5,236C 99.205,226.474 98.5383,216.974 97.5,207.5C 97.8592,200.732 98.8592,194.065 100.5,187.5C 100.5,186.833 100.5,186.167 100.5,185.5C 101.167,185.167 101.833,184.833 102.5,184.5 Z"/></g>
<g><path style="opacity:0.79" fill="#a7b955" d="M 185.5,190.5 C 183.765,198.721 183.098,207.055 183.5,215.5C 182.883,215.389 182.383,215.056 182,214.5C 181.108,207.374 181.608,200.374 183.5,193.5C 183.427,191.973 184.094,190.973 185.5,190.5 Z"/></g>
<g><path style="opacity:1" fill="#82a535" d="M 88.5,104.5 C 88.5,104.833 88.5,105.167 88.5,105.5C 87.8902,106.391 87.5569,107.391 87.5,108.5C 87.1676,167.336 87.501,226.002 88.5,284.5C 88.5,292.167 88.5,299.833 88.5,307.5C 88.5,308.833 88.5,310.167 88.5,311.5C 87.8333,311.833 87.1667,312.167 86.5,312.5C 86.6663,305.492 86.4996,298.492 86,291.5C 85.6174,290.944 85.1174,290.611 84.5,290.5C 83.7564,286.881 83.423,283.215 83.5,279.5C 83.6875,272.584 83.0209,265.751 81.5,259C 81.743,255.997 83.4096,254.83 86.5,255.5C 86.2454,205.368 86.2454,155.368 86.5,105.5C 87.1667,105.167 87.8333,104.833 88.5,104.5 Z"/></g>
<g><path style="opacity:1" fill="#81a63b" d="M 130.5,127.5 C 130.832,188.002 130.499,248.336 129.5,308.5C 129.5,307.5 129.5,306.5 129.5,305.5C 129.5,303.167 129.5,300.833 129.5,298.5C 128.746,286.987 126.579,275.654 123,264.5C 122.502,261.518 122.335,258.518 122.5,255.5C 122.338,253.473 122.505,251.473 123,249.5C 124.883,248.347 125.716,246.681 125.5,244.5C 123.052,244.915 121.719,243.915 121.5,241.5C 122.858,236.209 124.025,230.876 125,225.5C 125.333,228.5 125.667,231.5 126,234.5C 126.333,233.833 126.667,233.167 127,232.5C 126.875,237.42 127.208,242.42 128,247.5C 128.834,207.336 129.667,167.336 130.5,127.5 Z"/></g>
<g><path style="opacity:0.053" fill="#f1f9d8" d="M 160.5,199.5 C 161.654,205.987 161.821,212.654 161,219.5C 160.722,220.416 160.222,221.082 159.5,221.5C 160.35,214.201 160.683,206.868 160.5,199.5 Z"/></g>
<g><path style="opacity:1" fill="#87aa31" d="M 131.5,22.5 C 131.5,110.833 131.5,199.167 131.5,287.5C 131.5,291.5 131.5,295.5 131.5,299.5C 132.069,303.329 131.402,306.663 129.5,309.5C 129.5,309.167 129.5,308.833 129.5,308.5C 130.499,248.336 130.832,188.002 130.5,127.5C 130.5,119.5 130.5,111.5 130.5,103.5C 130.169,76.3282 130.502,49.3282 131.5,22.5 Z"/></g>
<g><path style="opacity:0.745" fill="#acbc64" d="M 147.5,210.5 C 147.833,210.5 148.167,210.5 148.5,210.5C 147.836,215.473 147.503,220.473 147.5,225.5C 146.663,230.196 145.663,234.863 144.5,239.5C 145.173,229.795 146.173,220.128 147.5,210.5 Z"/></g>
<g><path style="opacity:0.145" fill="#eff8c5" d="M 149.5,184.5 C 150.773,198.237 150.106,211.903 147.5,225.5C 147.503,220.473 147.836,215.473 148.5,210.5C 149.203,201.851 149.536,193.185 149.5,184.5 Z"/></g>
<g><path style="opacity:0.939" fill="#a9bc7f" d="M 76.5,191.5 C 77.1174,191.611 77.6174,191.944 78,192.5C 78.8252,203.008 78.6585,213.342 77.5,223.5C 76.5088,230.313 76.1755,237.313 76.5,244.5C 76.1667,244.5 75.8333,244.5 75.5,244.5C 75.8917,227.854 75.8917,211.188 75.5,194.5C 75.2627,193.209 75.596,192.209 76.5,191.5 Z"/></g>
<g><path style="opacity:0.129" fill="#dae9ba" d="M 113.5,202.5 C 114.246,209.531 115.246,216.531 116.5,223.5C 117.5,234.167 118.5,244.833 119.5,255.5C 116.305,239.784 114.305,223.784 113.5,207.5C 113.5,205.833 113.5,204.167 113.5,202.5 Z"/></g>
<g><path style="opacity:1" fill="#96b539" d="M 172.5,105.5 C 172.833,105.5 173.167,105.5 173.5,105.5C 173.966,110.404 173.966,115.404 173.5,120.5C 173.177,175.686 173.51,230.852 174.5,286C 174.613,287.699 173.947,288.866 172.5,289.5C 172.5,228.167 172.5,166.833 172.5,105.5 Z"/></g>
<g><path style="opacity:0.549" fill="#c2cf83" d="M 184.5,217.5 C 186.681,226.312 187.015,235.312 185.5,244.5C 184.833,246.833 184.167,249.167 183.5,251.5C 184.136,240.178 184.469,228.844 184.5,217.5 Z"/></g>
<g><path style="opacity:0.871" fill="#91a85c" d="M 77.5,223.5 C 77.7294,242.252 79.0628,260.919 81.5,279.5C 80.8333,277.833 80.1667,276.167 79.5,274.5C 78.1985,270.057 77.5319,265.391 77.5,260.5C 77.4312,255.146 77.0978,249.813 76.5,244.5C 76.1755,237.313 76.5088,230.313 77.5,223.5 Z"/></g>
<g><path style="opacity:1" fill="#9fbb32" d="M 100.5,187.5 C 98.8592,194.065 97.8592,200.732 97.5,207.5C 98.5383,216.974 99.205,226.474 99.5,236C 98.8271,247.872 97.8271,259.706 96.5,271.5C 95.8333,273.167 95.1667,274.833 94.5,276.5C 94.0067,267.969 94.6734,259.636 96.5,251.5C 95.8946,234.323 95.5613,216.989 95.5,199.5C 97.1725,195.443 98.8392,191.443 100.5,187.5 Z"/></g>
<g><path style="opacity:1" fill="#84a445" d="M 163.5,195.5 C 164.165,198.817 164.499,202.317 164.5,206C 163.875,215.503 163.208,225.003 162.5,234.5C 164.059,246.762 165.059,259.095 165.5,271.5C 163.085,259.092 161.752,246.425 161.5,233.5C 162.897,220.885 163.564,208.219 163.5,195.5 Z"/></g>
<g><path style="opacity:1" fill="#9eba34" d="M 173.5,120.5 C 175.391,122.944 176.724,125.778 177.5,129C 176.268,132.39 175.434,132.223 175,128.5C 174.333,154.167 174.333,179.833 175,205.5C 177,206.5 177,207.5 175,208.5C 174.5,224.163 174.333,239.83 174.5,255.5C 175.5,255.5 176.5,255.5 177.5,255.5C 177.632,259.219 176.965,262.719 175.5,266C 175.833,267.167 176.167,268.333 176.5,269.5C 179.208,266.336 180.541,262.669 180.5,258.5C 178.695,253.046 178.528,247.379 180,241.5C 180.333,241.167 180.667,240.833 181,240.5C 181.897,244.414 182.397,244.248 182.5,240C 182.397,235.752 181.897,235.586 181,239.5C 180.676,237.431 179.842,237.098 178.5,238.5C 177.506,233.544 177.173,228.544 177.5,223.5C 178.93,223.421 180.264,223.754 181.5,224.5C 181.833,223.5 182.167,222.5 182.5,221.5C 180.757,214.285 180.09,206.952 180.5,199.5C 179.5,199.5 178.5,199.5 177.5,199.5C 177.192,197.076 177.526,194.743 178.5,192.5C 179.333,193.5 180.167,194.5 181,195.5C 181.708,194.619 182.542,193.953 183.5,193.5C 181.608,200.374 181.108,207.374 182,214.5C 182.383,215.056 182.883,215.389 183.5,215.5C 183.328,216.492 183.662,217.158 184.5,217.5C 184.469,228.844 184.136,240.178 183.5,251.5C 183.5,252.833 183.5,254.167 183.5,255.5C 181.683,259.063 180.517,263.063 180,267.5C 179.169,274.146 178.669,280.813 178.5,287.5C 176.053,292.438 175.053,297.772 175.5,303.5C 174.839,304.718 174.172,306.051 173.5,307.5C 172.893,307.376 172.56,307.043 172.5,306.5C 172.5,300.833 172.5,295.167 172.5,289.5C 173.947,288.866 174.613,287.699 174.5,286C 173.51,230.852 173.177,175.686 173.5,120.5 Z"/></g>
<g><path style="opacity:1" fill="#8ca655" d="M 116.5,223.5 C 117.651,225.779 118.651,228.112 119.5,230.5C 120.288,238.809 120.621,247.142 120.5,255.5C 120.5,257.167 120.5,258.833 120.5,260.5C 119.549,259.081 119.216,257.415 119.5,255.5C 118.5,244.833 117.5,234.167 116.5,223.5 Z"/></g>
<g><path style="opacity:0.875" fill="#8ea45c" d="M 166.5,110.5 C 165.705,113.55 164.705,116.55 163.5,119.5C 162.675,120.386 161.675,120.719 160.5,120.5C 161.97,129.092 162.47,137.758 162,146.5C 160.91,150.777 159.243,154.777 157,158.5C 155.171,165.894 155.505,173.227 158,180.5C 159.389,185.767 161.223,190.767 163.5,195.5C 163.564,208.219 162.897,220.885 161.5,233.5C 161.752,246.425 163.085,259.092 165.5,271.5C 165.5,274.167 165.5,276.833 165.5,279.5C 164.167,273.5 162.833,267.5 161.5,261.5C 160.635,249.178 159.968,236.845 159.5,224.5C 159.5,223.5 159.5,222.5 159.5,221.5C 160.222,221.082 160.722,220.416 161,219.5C 161.821,212.654 161.654,205.987 160.5,199.5C 159.353,190.411 157.02,181.744 153.5,173.5C 152.055,168.305 152.388,163.305 154.5,158.5C 156.213,157.365 156.88,155.698 156.5,153.5C 156.328,152.508 156.662,151.842 157.5,151.5C 162.285,144.686 162.618,137.686 158.5,130.5C 158.564,126.78 159.064,123.114 160,119.5C 162.157,117.183 163.657,114.516 164.5,111.5C 165.167,111.167 165.833,110.833 166.5,110.5 Z"/></g>
<g><path style="opacity:0.082" fill="#f1f9c6" d="M 147.5,225.5 C 146.802,237.766 145.135,249.766 142.5,261.5C 143.036,254.153 143.703,246.82 144.5,239.5C 145.663,234.863 146.663,230.196 147.5,225.5 Z"/></g>
<g><path style="opacity:0.694" fill="#afc066" d="M 144.5,239.5 C 143.703,246.82 143.036,254.153 142.5,261.5C 142.795,263.735 142.461,265.735 141.5,267.5C 140.833,268.833 140.167,270.167 139.5,271.5C 140.008,262.773 141.008,254.106 142.5,245.5C 143.167,243.5 143.833,241.5 144.5,239.5 Z"/></g>
<g><path style="opacity:0.11" fill="#e3f0c8" d="M 159.5,224.5 C 159.968,236.845 160.635,249.178 161.5,261.5C 159.115,249.229 158.449,236.896 159.5,224.5 Z"/></g>
<g><path style="opacity:0.063" fill="#e9f3bd" d="M 185.5,244.5 C 185.556,249.731 184.889,254.731 183.5,259.5C 183.5,258.167 183.5,256.833 183.5,255.5C 183.5,254.167 183.5,252.833 183.5,251.5C 184.167,249.167 184.833,246.833 185.5,244.5 Z"/></g>
<g><path style="opacity:0.137" fill="#ccddac" d="M 75.5,244.5 C 75.8333,244.5 76.1667,244.5 76.5,244.5C 77.0978,249.813 77.4312,255.146 77.5,260.5C 76.3351,255.367 75.6685,250.034 75.5,244.5 Z"/></g>
<g><path style="opacity:1" fill="#87a633" d="M 171.5,105.5 C 171.833,105.5 172.167,105.5 172.5,105.5C 172.5,166.833 172.5,228.167 172.5,289.5C 172.5,295.167 172.5,300.833 172.5,306.5C 171.833,304.167 171.167,301.833 170.5,299.5C 170.35,293.613 169.683,287.779 168.5,282C 170.386,280.093 171.386,277.76 171.5,275C 170.863,264.146 170.863,253.146 171.5,242C 171.476,235.757 170.81,229.757 169.5,224C 170.297,220.255 170.797,216.421 171,212.5C 171.667,180.167 171.667,147.833 171,115.5C 170.837,113.324 170.004,111.491 168.5,110C 170.141,108.871 171.141,107.371 171.5,105.5 Z"/></g>
<g><path style="opacity:0.133" fill="#e1eec3" d="M 161.5,261.5 C 162.833,267.5 164.167,273.5 165.5,279.5C 165.5,282.167 165.5,284.833 165.5,287.5C 163.345,279.089 162.011,270.423 161.5,261.5 Z"/></g>
<g><path style="opacity:0.953" fill="#afc265" d="M 183.5,255.5 C 183.5,256.833 183.5,258.167 183.5,259.5C 183.677,263.234 183.344,266.901 182.5,270.5C 180.918,273.876 180.251,277.542 180.5,281.5C 180.795,283.735 180.461,285.735 179.5,287.5C 179.167,287.5 178.833,287.5 178.5,287.5C 178.669,280.813 179.169,274.146 180,267.5C 180.517,263.063 181.683,259.063 183.5,255.5 Z"/></g>
<g><path style="opacity:0.133" fill="#c8d8a5" d="M 120.5,260.5 C 121.941,266.144 123.274,271.811 124.5,277.5C 124.5,279.833 124.5,282.167 124.5,284.5C 122.538,276.729 121.205,268.729 120.5,260.5 Z"/></g>
<g><path style="opacity:0.063" fill="#eff6c0" d="M 141.5,267.5 C 141.461,271.733 140.795,275.733 139.5,279.5C 139.5,277.833 139.5,276.167 139.5,274.5C 139.5,273.5 139.5,272.5 139.5,271.5C 140.167,270.167 140.833,268.833 141.5,267.5 Z"/></g>
<g><path style="opacity:0.098" fill="#e7f3bb" d="M 182.5,270.5 C 182.354,274.387 181.687,278.054 180.5,281.5C 180.251,277.542 180.918,273.876 182.5,270.5 Z"/></g>
<g><path style="opacity:0.743" fill="#a4b652" d="M 96.5,271.5 C 96.0347,282.492 94.3681,293.158 91.5,303.5C 91.8854,296.803 92.552,290.136 93.5,283.5C 93.6741,281.139 94.0074,278.806 94.5,276.5C 95.1667,274.833 95.8333,273.167 96.5,271.5 Z"/></g>
<g><path style="opacity:0.384" fill="#abbc6b" d="M 139.5,274.5 C 139.5,276.167 139.5,277.833 139.5,279.5C 138.833,280.5 138.167,281.5 137.5,282.5C 137.565,279.572 138.232,276.905 139.5,274.5 Z"/></g>
<g><path style="opacity:0.114" fill="#c8d8a7" d="M 79.5,274.5 C 80.1667,276.167 80.8333,277.833 81.5,279.5C 81.5,282.167 81.5,284.833 81.5,287.5C 80.2911,283.382 79.6245,279.049 79.5,274.5 Z"/></g>
<g><path style="opacity:1" fill="#85a246" d="M 120.5,255.5 C 121.167,255.5 121.833,255.5 122.5,255.5C 122.335,258.518 122.502,261.518 123,264.5C 126.579,275.654 128.746,286.987 129.5,298.5C 127.742,291.527 126.075,284.527 124.5,277.5C 123.274,271.811 121.941,266.144 120.5,260.5C 120.5,258.833 120.5,257.167 120.5,255.5 Z"/></g>
<g><path style="opacity:0.766" fill="#93a665" d="M 124.5,277.5 C 126.075,284.527 127.742,291.527 129.5,298.5C 129.5,300.833 129.5,303.167 129.5,305.5C 129.167,305.5 128.833,305.5 128.5,305.5C 128.768,303.901 128.434,302.568 127.5,301.5C 126.539,299.735 126.205,297.735 126.5,295.5C 126.57,291.575 125.903,287.909 124.5,284.5C 124.5,282.167 124.5,279.833 124.5,277.5 Z"/></g>
<g><path style="opacity:0.925" fill="#87a054" d="M 165.5,279.5 C 167.903,285.993 169.569,292.66 170.5,299.5C 170.5,302.167 170.5,304.833 170.5,307.5C 170.167,307.5 169.833,307.5 169.5,307.5C 168.796,300.583 167.462,293.916 165.5,287.5C 165.5,284.833 165.5,282.167 165.5,279.5 Z"/></g>
<g><path style="opacity:0.748" fill="#95ac64" d="M 81.5,279.5 C 82.1667,279.5 82.8333,279.5 83.5,279.5C 83.423,283.215 83.7564,286.881 84.5,290.5C 85.0802,294.81 85.4135,299.143 85.5,303.5C 84.8333,302.167 84.1667,300.833 83.5,299.5C 82.3833,295.705 81.7167,291.705 81.5,287.5C 81.5,284.833 81.5,282.167 81.5,279.5 Z"/></g>
<g><path style="opacity:0.09" fill="#dbe5b6" d="M 124.5,284.5 C 125.903,287.909 126.57,291.575 126.5,295.5C 125.097,292.091 124.43,288.425 124.5,284.5 Z"/></g>
<g><path style="opacity:1" fill="#8ea94b" d="M 84.5,290.5 C 85.1174,290.611 85.6174,290.944 86,291.5C 86.4996,298.492 86.6663,305.492 86.5,312.5C 85.0101,314.28 83.0101,314.946 80.5,314.5C 81.8775,313.766 83.3775,313.099 85,312.5C 85.498,309.518 85.6646,306.518 85.5,303.5C 85.4135,299.143 85.0802,294.81 84.5,290.5 Z"/></g>
<g><path style="opacity:0.639" fill="#a5b557" d="M 178.5,287.5 C 178.246,293.095 177.246,298.428 175.5,303.5C 175.053,297.772 176.053,292.438 178.5,287.5 Z"/></g>
<g><path style="opacity:0.987" fill="#9eb744" d="M 139.5,271.5 C 139.5,272.5 139.5,273.5 139.5,274.5C 138.232,276.905 137.565,279.572 137.5,282.5C 136.493,290.877 135.159,299.21 133.5,307.5C 133.747,308.713 134.414,309.38 135.5,309.5C 143.307,310.717 151.307,311.384 159.5,311.5C 159.5,311.833 159.5,312.167 159.5,312.5C 149.097,312.742 138.764,312.075 128.5,310.5C 128.5,310.167 128.5,309.833 128.5,309.5C 128.833,309.5 129.167,309.5 129.5,309.5C 131.402,306.663 132.069,303.329 131.5,299.5C 133.041,298.442 134.041,296.942 134.5,295C 135.193,290.19 135.693,285.357 136,280.5C 136.535,277.031 137.702,274.031 139.5,271.5 Z"/></g>
<g><path style="opacity:1" fill="#a5ba55" d="M 91.5,303.5 C 91.7683,306.119 91.435,308.619 90.5,311C 93.146,311.497 95.8127,311.664 98.5,311.5C 95.2471,314.131 91.9137,314.131 88.5,311.5C 88.5,310.167 88.5,308.833 88.5,307.5C 89.9779,306.552 90.9779,305.219 91.5,303.5 Z"/></g>
<g><path style="opacity:0.02" fill="#ecf8cf" d="M 127.5,301.5 C 128.434,302.568 128.768,303.901 128.5,305.5C 128.5,306.5 128.5,307.5 128.5,308.5C 127.5,308.5 126.5,308.5 125.5,308.5C 127.148,306.544 127.815,304.211 127.5,301.5 Z"/></g>
<g><path style="opacity:0.169" fill="#e9f3bd" d="M 101.5,224.5 C 102.545,234.017 102.379,243.684 101,253.5C 98.5388,272.258 95.8722,290.925 93,309.5C 93.7247,310.059 94.5581,310.392 95.5,310.5C 105.43,308.89 115.43,308.223 125.5,308.5C 126.5,308.5 127.5,308.5 128.5,308.5C 128.5,307.5 128.5,306.5 128.5,305.5C 128.833,305.5 129.167,305.5 129.5,305.5C 129.5,306.5 129.5,307.5 129.5,308.5C 129.5,308.833 129.5,309.167 129.5,309.5C 129.167,309.5 128.833,309.5 128.5,309.5C 118.612,309.142 108.945,309.808 99.5,311.5C 99.1667,311.5 98.8333,311.5 98.5,311.5C 95.8127,311.664 93.146,311.497 90.5,311C 91.435,308.619 91.7683,306.119 91.5,303.5C 94.3681,293.158 96.0347,282.492 96.5,271.5C 99.7767,256.147 101.443,240.48 101.5,224.5 Z"/></g>
<g><path style="opacity:0.075" fill="#e7f2be" d="M 139.5,279.5 C 138.167,288.833 136.833,298.167 135.5,307.5C 146.208,308.402 156.874,309.236 167.5,310C 168.081,309.107 168.415,308.107 168.5,307C 167.227,300.532 166.227,294.032 165.5,287.5C 167.462,293.916 168.796,300.583 169.5,307.5C 169.5,308.833 169.5,310.167 169.5,311.5C 168.167,311.5 166.833,311.5 165.5,311.5C 164.833,311.5 164.167,311.5 163.5,311.5C 154.374,310.012 145.041,309.345 135.5,309.5C 134.414,309.38 133.747,308.713 133.5,307.5C 135.159,299.21 136.493,290.877 137.5,282.5C 138.167,281.5 138.833,280.5 139.5,279.5 Z"/></g>
<g><path style="opacity:0.059" fill="#eaf3bc" d="M 178.5,287.5 C 178.833,287.5 179.167,287.5 179.5,287.5C 178.333,295.495 177.5,303.495 177,311.5C 185.363,313.463 193.53,315.796 201.5,318.5C 199.833,318.5 198.167,318.5 196.5,318.5C 190.476,316.076 184.143,314.409 177.5,313.5C 176.833,313.5 176.167,313.5 175.5,313.5C 175.172,310.315 175.172,306.982 175.5,303.5C 177.246,298.428 178.246,293.095 178.5,287.5 Z"/></g>
<g><path style="opacity:0.78" fill="#a1b35a" d="M 128.5,309.5 C 128.5,309.833 128.5,310.167 128.5,310.5C 118.825,310.638 109.158,310.971 99.5,311.5C 108.945,309.808 118.612,309.142 128.5,309.5 Z"/></g>
<g><path style="opacity:0.745" fill="#a7b962" d="M 135.5,309.5 C 145.041,309.345 154.374,310.012 163.5,311.5C 162.167,311.5 160.833,311.5 159.5,311.5C 151.307,311.384 143.307,310.717 135.5,309.5 Z"/></g>
<g><path style="opacity:0.604" fill="#b8cd7a" d="M 169.5,307.5 C 169.833,307.5 170.167,307.5 170.5,307.5C 170.5,309.167 170.5,310.833 170.5,312.5C 168.585,312.784 166.919,312.451 165.5,311.5C 166.833,311.5 168.167,311.5 169.5,311.5C 169.5,310.167 169.5,308.833 169.5,307.5 Z"/></g>
<g><path style="opacity:0.043" fill="#e5f1c3" d="M 83.5,299.5 C 84.1667,300.833 84.8333,302.167 85.5,303.5C 85.6646,306.518 85.498,309.518 85,312.5C 83.3775,313.099 81.8775,313.766 80.5,314.5C 80.1667,314.5 79.8333,314.5 79.5,314.5C 78.1667,314.5 76.8333,314.5 75.5,314.5C 78.2173,313.437 81.0506,312.437 84,311.5C 84.1703,307.507 84.0037,303.507 83.5,299.5 Z"/></g>
<g><path style="opacity:1" fill="#9ebc2f" d="M 128.5,310.5 C 138.764,312.075 149.097,312.742 159.5,312.5C 164.805,313.194 170.138,313.528 175.5,313.5C 176.167,313.5 176.833,313.5 177.5,313.5C 177.611,314.117 177.944,314.617 178.5,315C 182.302,315.409 185.969,316.243 189.5,317.5C 189.611,318.117 189.944,318.617 190.5,319C 194.147,319.774 197.814,320.441 201.5,321C 202.056,321.383 202.389,321.883 202.5,322.5C 200.754,323.218 200.088,324.218 200.5,325.5C 197.459,325.121 194.959,323.788 193,321.5C 192.383,322.449 192.549,323.282 193.5,324C 192.167,324.167 190.833,324.333 189.5,324.5C 180.812,323.226 172.145,321.893 163.5,320.5C 162.264,321.246 160.93,321.579 159.5,321.5C 156.167,321.5 152.833,321.5 149.5,321.5C 137.007,320.669 124.34,320.169 111.5,320C 110.833,319.333 110.167,318.667 109.5,318C 115.528,317.83 121.528,317.33 127.5,316.5C 125.187,315.727 122.854,315.06 120.5,314.5C 118.939,315.347 117.439,315.014 116,313.5C 112.926,314.838 109.426,315.338 105.5,315C 104.167,314.333 104.167,313.667 105.5,313C 113.4,312.925 121.066,312.092 128.5,310.5 Z"/></g>
<g><path style="opacity:0.996" fill="#98b14a" d="M 170.5,299.5 C 171.167,301.833 171.833,304.167 172.5,306.5C 172.56,307.043 172.893,307.376 173.5,307.5C 174.172,306.051 174.839,304.718 175.5,303.5C 175.172,306.982 175.172,310.315 175.5,313.5C 170.138,313.528 164.805,313.194 159.5,312.5C 159.5,312.167 159.5,311.833 159.5,311.5C 160.833,311.5 162.167,311.5 163.5,311.5C 164.167,311.5 164.833,311.5 165.5,311.5C 166.919,312.451 168.585,312.784 170.5,312.5C 170.5,310.833 170.5,309.167 170.5,307.5C 170.5,304.833 170.5,302.167 170.5,299.5 Z"/></g>
<g><path style="opacity:1" fill="#9fba32" d="M 128.5,310.5 C 121.066,312.092 113.4,312.925 105.5,313C 104.167,313.667 104.167,314.333 105.5,315C 109.426,315.338 112.926,314.838 116,313.5C 117.439,315.014 118.939,315.347 120.5,314.5C 122.854,315.06 125.187,315.727 127.5,316.5C 121.528,317.33 115.528,317.83 109.5,318C 110.167,318.667 110.833,319.333 111.5,320C 124.34,320.169 137.007,320.669 149.5,321.5C 134.163,321.333 118.83,321.5 103.5,322C 102.944,322.383 102.611,322.883 102.5,323.5C 100.167,323.5 97.8333,323.5 95.5,323.5C 89.9313,323.376 84.598,324.043 79.5,325.5C 74.2169,325.096 69.2169,325.762 64.5,327.5C 64.1667,327.5 63.8333,327.5 63.5,327.5C 57.8465,328.055 52.1798,328.555 46.5,329C 40.7686,331.931 34.7686,333.597 28.5,334C 28.9574,333.586 29.2907,333.086 29.5,332.5C 34.7083,331.051 39.375,328.718 43.5,325.5C 46.5682,325.453 49.5682,324.953 52.5,324C 60.5971,319.837 69.2638,317.17 78.5,316C 79.056,315.617 79.3893,315.117 79.5,314.5C 79.8333,314.5 80.1667,314.5 80.5,314.5C 83.0101,314.946 85.0101,314.28 86.5,312.5C 87.1667,312.167 87.8333,311.833 88.5,311.5C 91.9137,314.131 95.2471,314.131 98.5,311.5C 98.8333,311.5 99.1667,311.5 99.5,311.5C 109.158,310.971 118.825,310.638 128.5,310.5 Z"/></g>
<g><path style="opacity:0.894" fill="#a6b859" d="M 177.5,313.5 C 184.143,314.409 190.476,316.076 196.5,318.5C 194.139,318.326 191.806,317.993 189.5,317.5C 185.969,316.243 182.302,315.409 178.5,315C 177.944,314.617 177.611,314.117 177.5,313.5 Z"/></g>
<g><path style="opacity:0.192" fill="#e3edb0" d="M 74.5,314.5 C 67.7436,316.993 60.7436,318.993 53.5,320.5C 60.1168,317.502 67.1168,315.502 74.5,314.5 Z"/></g>
<g><path style="opacity:0.035" fill="#eff6c1" d="M 201.5,318.5 C 204.916,318.528 207.916,319.528 210.5,321.5C 207.146,321.253 204.146,320.253 201.5,318.5 Z"/></g>
<g><path style="opacity:0.687" fill="#a3b658" d="M 149.5,321.5 C 152.833,321.5 156.167,321.5 159.5,321.5C 162.167,322.167 164.833,322.833 167.5,323.5C 164.833,323.5 162.167,323.5 159.5,323.5C 140.831,322.2 122.164,322.2 103.5,323.5C 103.167,323.5 102.833,323.5 102.5,323.5C 102.611,322.883 102.944,322.383 103.5,322C 118.83,321.5 134.163,321.333 149.5,321.5 Z"/></g>
<g><path style="opacity:1" fill="#a3b64d" d="M 189.5,317.5 C 191.806,317.993 194.139,318.326 196.5,318.5C 198.167,318.5 199.833,318.5 201.5,318.5C 204.146,320.253 207.146,321.253 210.5,321.5C 212.833,322.833 215.167,324.167 217.5,325.5C 212.558,324.349 207.558,323.349 202.5,322.5C 202.389,321.883 202.056,321.383 201.5,321C 197.814,320.441 194.147,319.774 190.5,319C 189.944,318.617 189.611,318.117 189.5,317.5 Z"/></g>
<g><path style="opacity:1" fill="#a1b937" d="M 202.5,322.5 C 207.558,323.349 212.558,324.349 217.5,325.5C 219.579,325.971 221.579,326.637 223.5,327.5C 226.767,329.811 230.1,332.144 233.5,334.5C 233.043,335.298 232.376,335.631 231.5,335.5C 230.5,335.5 229.5,335.5 228.5,335.5C 227.251,333.864 225.584,332.697 223.5,332C 210.159,329.276 196.826,327.109 183.5,325.5C 178.402,324.043 173.069,323.376 167.5,323.5C 164.833,322.833 162.167,322.167 159.5,321.5C 160.93,321.579 162.264,321.246 163.5,320.5C 172.145,321.893 180.812,323.226 189.5,324.5C 190.833,324.333 192.167,324.167 193.5,324C 192.549,323.282 192.383,322.449 193,321.5C 194.959,323.788 197.459,325.121 200.5,325.5C 200.088,324.218 200.754,323.218 202.5,322.5 Z"/></g>
<g><path style="opacity:1" fill="#a1b54c" d="M 74.5,314.5 C 74.8333,314.5 75.1667,314.5 75.5,314.5C 76.8333,314.5 78.1667,314.5 79.5,314.5C 79.3893,315.117 79.056,315.617 78.5,316C 69.2638,317.17 60.5971,319.837 52.5,324C 49.5682,324.953 46.5682,325.453 43.5,325.5C 46.9992,324.129 50.3326,322.462 53.5,320.5C 60.7436,318.993 67.7436,316.993 74.5,314.5 Z"/></g>
<g><path style="opacity:0.044" fill="#f1f9cb" d="M 159.5,323.5 C 159.5,323.833 159.5,324.167 159.5,324.5C 140.832,323.222 122.165,323.222 103.5,324.5C 103.5,324.167 103.5,323.833 103.5,323.5C 122.164,322.2 140.831,322.2 159.5,323.5 Z"/></g>
<g><path style="opacity:0.776" fill="#a2b555" d="M 167.5,323.5 C 173.069,323.376 178.402,324.043 183.5,325.5C 177.949,325.473 172.616,324.806 167.5,323.5 Z"/></g>
<g><path style="opacity:0.427" fill="#d8e2a4" d="M 53.5,320.5 C 50.3326,322.462 46.9992,324.129 43.5,325.5C 42.1667,325.5 40.8333,325.5 39.5,325.5C 43.7994,323.065 48.466,321.398 53.5,320.5 Z"/></g>
<g><path style="opacity:0.31" fill="#b6c776" d="M 95.5,323.5 C 92.8333,324.167 90.1667,324.833 87.5,325.5C 84.9039,326.265 82.2372,326.599 79.5,326.5C 79.5,326.167 79.5,325.833 79.5,325.5C 84.598,324.043 89.9313,323.376 95.5,323.5 Z"/></g>
<g><path style="opacity:0.02" fill="#ebf6ba" d="M 95.5,323.5 C 97.8333,323.5 100.167,323.5 102.5,323.5C 102.833,323.5 103.167,323.5 103.5,323.5C 103.5,323.833 103.5,324.167 103.5,324.5C 98.187,325.098 92.8537,325.431 87.5,325.5C 90.1667,324.833 92.8333,324.167 95.5,323.5 Z"/></g>
<g><path style="opacity:0.122" fill="#e1ecae" d="M 159.5,324.5 C 159.5,324.167 159.5,323.833 159.5,323.5C 162.167,323.5 164.833,323.5 167.5,323.5C 172.616,324.806 177.949,325.473 183.5,325.5C 185.167,326.167 186.833,326.833 188.5,327.5C 178.841,326.434 169.174,325.434 159.5,324.5 Z"/></g>
<g><path style="opacity:0.682" fill="#b0c064" d="M 79.5,325.5 C 79.5,325.833 79.5,326.167 79.5,326.5C 76.9039,327.265 74.2372,327.599 71.5,327.5C 69.1667,327.5 66.8333,327.5 64.5,327.5C 69.2169,325.762 74.2169,325.096 79.5,325.5 Z"/></g>
<g><path style="opacity:0.988" fill="#aebe60" d="M 183.5,325.5 C 196.826,327.109 210.159,329.276 223.5,332C 225.584,332.697 227.251,333.864 228.5,335.5C 227.833,335.5 227.167,335.5 226.5,335.5C 224.162,333.96 221.495,333.294 218.5,333.5C 218.167,333.5 217.833,333.5 217.5,333.5C 215.562,331.837 213.228,331.171 210.5,331.5C 206.613,331.354 202.946,330.687 199.5,329.5C 199.082,328.778 198.416,328.278 197.5,328C 194.854,327.503 192.187,327.336 189.5,327.5C 189.167,327.5 188.833,327.5 188.5,327.5C 186.833,326.833 185.167,326.167 183.5,325.5 Z"/></g>
<g><path style="opacity:0.09" fill="#f4fccc" d="M 39.5,325.5 C 37.5739,327.293 35.2406,328.293 32.5,328.5C 34.4261,326.707 36.7594,325.707 39.5,325.5 Z"/></g>
<g><path style="opacity:0.416" fill="#d9e3a3" d="M 189.5,327.5 C 192.187,327.336 194.854,327.503 197.5,328C 198.416,328.278 199.082,328.778 199.5,329.5C 195.922,329.451 192.589,328.785 189.5,327.5 Z"/></g>
<g><path style="opacity:0.11" fill="#ecf4c0" d="M 210.5,321.5 C 224.393,325.614 237.393,331.614 249.5,339.5C 249.5,339.833 249.5,340.167 249.5,340.5C 246.183,338.863 242.85,337.196 239.5,335.5C 234.484,332.326 229.151,329.659 223.5,327.5C 221.579,326.637 219.579,325.971 217.5,325.5C 215.167,324.167 212.833,322.833 210.5,321.5 Z"/></g>
<g><path style="opacity:0.082" fill="#e5f0b2" d="M 63.5,327.5 C 63.8333,327.5 64.1667,327.5 64.5,327.5C 66.8333,327.5 69.1667,327.5 71.5,327.5C 59.3139,330.293 46.9805,332.959 34.5,335.5C 43.9524,332.076 53.619,329.409 63.5,327.5 Z"/></g>
<g><path style="opacity:0.122" fill="#f7fdca" d="M 32.5,328.5 C 31.713,330.104 30.3797,330.771 28.5,330.5C 29.5137,329.326 30.847,328.66 32.5,328.5 Z"/></g>
<g><path style="opacity:0.169" fill="#e7eeb9" d="M 210.5,331.5 C 213.228,331.171 215.562,331.837 217.5,333.5C 214.933,333.279 212.599,332.612 210.5,331.5 Z"/></g>
<g><path style="opacity:0.145" fill="#f0f7c5" d="M 28.5,330.5 C 26.3428,332.412 24.0094,334.079 21.5,335.5C 19.5168,336.471 17.5168,337.471 15.5,338.5C 15.5,338.167 15.5,337.833 15.5,337.5C 19.3472,334.407 23.6805,332.074 28.5,330.5 Z"/></g>
<g><path style="opacity:0.169" fill="#e3ebb3" d="M 218.5,333.5 C 221.495,333.294 224.162,333.96 226.5,335.5C 223.572,335.435 220.905,334.768 218.5,333.5 Z"/></g>
<g><path style="opacity:0.998" fill="#a3b54e" d="M 39.5,325.5 C 40.8333,325.5 42.1667,325.5 43.5,325.5C 39.375,328.718 34.7083,331.051 29.5,332.5C 29.2907,333.086 28.9574,333.586 28.5,334C 34.7686,333.597 40.7686,331.931 46.5,329C 52.1798,328.555 57.8465,328.055 63.5,327.5C 53.619,329.409 43.9524,332.076 34.5,335.5C 31.0272,335.576 27.6939,336.242 24.5,337.5C 23.1266,337.657 21.7932,337.49 20.5,337C 21.056,336.617 21.3893,336.117 21.5,335.5C 24.0094,334.079 26.3428,332.412 28.5,330.5C 30.3797,330.771 31.713,330.104 32.5,328.5C 35.2406,328.293 37.5739,327.293 39.5,325.5 Z"/></g>
<g><path style="opacity:0.416" fill="#e1eab2" d="M 226.5,335.5 C 227.167,335.5 227.833,335.5 228.5,335.5C 229.5,335.5 230.5,335.5 231.5,335.5C 233.214,336.738 235.214,337.405 237.5,337.5C 238.167,338.167 238.833,338.833 239.5,339.5C 234.835,338.922 230.501,337.589 226.5,335.5 Z"/></g>
<g><path style="opacity:0.137" fill="#e9efbf" d="M 34.5,335.5 C 31.4172,337.025 28.0839,338.025 24.5,338.5C 24.5,338.167 24.5,337.833 24.5,337.5C 27.6939,336.242 31.0272,335.576 34.5,335.5 Z"/></g>
<g><path style="opacity:0.978" fill="#a3b350" d="M 223.5,327.5 C 229.151,329.659 234.484,332.326 239.5,335.5C 239.5,336.833 238.833,337.5 237.5,337.5C 235.214,337.405 233.214,336.738 231.5,335.5C 232.376,335.631 233.043,335.298 233.5,334.5C 230.1,332.144 226.767,329.811 223.5,327.5 Z"/></g>
<g><path style="opacity:0.937" fill="#a9b46e" d="M 239.5,335.5 C 242.85,337.196 246.183,338.863 249.5,340.5C 251.031,341.925 250.698,342.591 248.5,342.5C 245.785,340.928 242.785,339.928 239.5,339.5C 238.833,338.833 238.167,338.167 237.5,337.5C 238.833,337.5 239.5,336.833 239.5,335.5 Z"/></g>
<g><path style="opacity:0.835" fill="#a8b46c" d="M 21.5,335.5 C 21.3893,336.117 21.056,336.617 20.5,337C 21.7932,337.49 23.1266,337.657 24.5,337.5C 24.5,337.833 24.5,338.167 24.5,338.5C 21.1226,338.959 17.7893,339.626 14.5,340.5C 14.8333,339.833 15.1667,339.167 15.5,338.5C 17.5168,337.471 19.5168,336.471 21.5,335.5 Z"/></g>
<g><path style="opacity:0.082" fill="#f1f8ca" d="M 239.5,339.5 C 242.785,339.928 245.785,340.928 248.5,342.5C 247.833,342.5 247.167,342.5 246.5,342.5C 243.843,342.065 241.509,341.065 239.5,339.5 Z"/></g>
<g><path style="opacity:0.133" fill="#f4f8d5" d="M 24.5,338.5 C 20.1832,340.94 15.5166,342.607 10.5,343.5C 11.8333,342.5 13.1667,341.5 14.5,340.5C 17.7893,339.626 21.1226,338.959 24.5,338.5 Z"/></g>
<g><path style="opacity:0.118" fill="#dee1cc" d="M 15.5,337.5 C 15.5,337.833 15.5,338.167 15.5,338.5C 15.1667,339.167 14.8333,339.833 14.5,340.5C 13.1667,341.5 11.8333,342.5 10.5,343.5C 8.97189,343.483 8.47189,342.816 9,341.5C 10.9719,339.768 13.1386,338.435 15.5,337.5 Z"/></g>
<g><path style="opacity:0.149" fill="#f2f4e3" d="M 249.5,339.5 C 252.352,340.699 253.185,342.366 252,344.5C 249.97,344.046 248.137,343.38 246.5,342.5C 247.167,342.5 247.833,342.5 248.5,342.5C 250.698,342.591 251.031,341.925 249.5,340.5C 249.5,340.167 249.5,339.833 249.5,339.5 Z"/></g>
</svg>
